<?xml version="1.0" encoding="UTF-8" standalone="no"?>
<svg
   xmlns:dc="http://purl.org/dc/elements/1.1/"
   xmlns:cc="http://creativecommons.org/ns#"
   xmlns:rdf="http://www.w3.org/1999/02/22-rdf-syntax-ns#"
   xmlns:svg="http://www.w3.org/2000/svg"
   xmlns="http://www.w3.org/2000/svg"
   xmlns:xlink="http://www.w3.org/1999/xlink"
   xmlns:sodipodi="http://sodipodi.sourceforge.net/DTD/sodipodi-0.dtd"
   xmlns:inkscape="http://www.inkscape.org/namespaces/inkscape"
   version="1.1"
   id="svg2"
   width="2560"
   height="249.424"
   viewBox="0 0 2560 249.424"
   sodipodi:docname="wave-end-1.svg"
   inkscape:version="1.0.2 (e86c870879, 2021-01-15)">
  <metadata
     id="metadata8">
    <rdf:RDF>
      <cc:Work
         rdf:about="">
        <dc:format>image/svg+xml</dc:format>
        <dc:type
           rdf:resource="http://purl.org/dc/dcmitype/StillImage" />
        <dc:title />
      </cc:Work>
    </rdf:RDF>
  </metadata>
  <defs
     id="defs6">
    <linearGradient
       inkscape:collect="always"
       id="linearGradient864">
      <stop
         style="stop-color:#0c1631;stop-opacity:1"
         offset="0"
         id="stop860" />
      <stop
         style="stop-color:#ac1782;stop-opacity:1"
         offset="1"
         id="stop862" />
    </linearGradient>
    <linearGradient
       inkscape:collect="always"
       xlink:href="#linearGradient864"
       id="linearGradient866"
       x1="1187.2885"
       y1="156.7118"
       x2="1372.7118"
       y2="156.7118"
       gradientUnits="userSpaceOnUse"
       gradientTransform="rotate(-90,1280.0002,156.7118)" />
    <linearGradient
       inkscape:collect="always"
       xlink:href="#linearGradient864"
       id="linearGradient874"
       x1="1172.2993"
       y1="107.7007"
       x2="1387.7007"
       y2="107.7007"
       gradientUnits="userSpaceOnUse"
       gradientTransform="rotate(-90,1280,107.7007)" />
    <linearGradient
       inkscape:collect="always"
       xlink:href="#linearGradient864"
       id="linearGradient927"
       gradientUnits="userSpaceOnUse"
       gradientTransform="rotate(-90,1280.0004,156.71214)"
       x1="1187.2885"
       y1="156.7118"
       x2="1372.7118"
       y2="156.7118" />
    <linearGradient
       inkscape:collect="always"
       xlink:href="#linearGradient864"
       id="linearGradient953"
       gradientUnits="userSpaceOnUse"
       gradientTransform="rotate(-90,1280.0004,156.71214)"
       x1="1187.2885"
       y1="156.7118"
       x2="1372.7118"
       y2="156.7118" />
  </defs>
  <sodipodi:namedview
     pagecolor="#ffffff"
     bordercolor="#666666"
     borderopacity="1"
     objecttolerance="10"
     gridtolerance="10"
     guidetolerance="10"
     inkscape:pageopacity="0"
     inkscape:pageshadow="2"
     inkscape:window-width="1920"
     inkscape:window-height="1011"
     id="namedview4"
     showgrid="false"
     inkscape:zoom="0.34499076"
     inkscape:cx="3263.3563"
     inkscape:cy="147.28075"
     inkscape:window-x="0"
     inkscape:window-y="0"
     inkscape:window-maximized="1"
     inkscape:current-layer="g10"
     inkscape:document-rotation="0" />
  <g
     inkscape:groupmode="layer"
     inkscape:label="Image"
     id="g10">
    <g
       id="g951"
       transform="translate(0,2)">
      <g
         id="g850">
        <path
           style="fill:url(#linearGradient874);fill-opacity:1;stroke-width:1.333;stroke-miterlimit:4;stroke-dasharray:none"
           d="M 9.1942056e-6,133.26271 V 51.123909 L 7.6667092,51.738209 c 12.5416998,1.0048 38.6145998,5.8457 66.3332998,12.3161 7.3334,1.7118 17.2334,3.8153 22,4.6745 4.766701,0.8591 12.866701,2.4572 18.000001,3.5512 21.3426,4.5486 51.1033,4.4753 71.33336,-0.1757 37.08759,-8.5266 43.97662,-10.0362 45.80038,-10.0362 2.906,0 39.75594,-12.2463 50.19962,-16.6828 34.28923,-14.566 66.61772,-18.4782 94.66667,-11.4559 12.72239,3.1851 18.85625,5.8288 50.53384,21.78 14.22695,7.1639 26.52695,13.029 27.33333,13.0336 0.80639,0 2.96616,0.7739 4.7995,1.7098 10.09285,5.1524 27.22952,7.1682 64,7.5283 33.04496,0.3235 51.5241,-1.6157 70.66666,-7.416 8.43334,-2.5554 16.53334,-5.1429 18,-5.75 1.46667,-0.6072 6.26667,-2.1995 10.66667,-3.5384 4.4,-1.339 8.6,-2.8288 9.33333,-3.3108 3.39855,-2.2334 21.26076,-7.1253 45.52411,-12.4675 19.52568,-4.2991 55.15157,-1.9346 81.46771,5.4071 4.22116,1.1776 11.05957,2.901 15.19644,3.8298 4.13688,0.9288 10.43688,2.6131 14,3.7428 5.76981,1.8294 12.69376,3.5372 30.47841,7.5179 6.78752,1.5192 15.93925,3.1836 36,6.5472 37.61577,6.3071 41.503,6.5437 59.37071,3.6138 17.39781,-2.8529 27.782,-6.9845 63.62495,-25.3148 7.2537,-3.7096 30.3628,-13.8706 39.671,-17.4432 4.4,-1.6888 14.3,-5.512 22,-8.496 7.7,-2.984 15.8,-5.801 18,-6.2599 2.2,-0.459 7.6,-2.0083 12,-3.443 12.0987,-3.9449 40.1453,-7.7484998 64.0277,-8.6833998 18.9451,-0.7416 23.0048,-0.4995 35.8937,2.1402 16.545,3.3883998 31.7104,10.8065998 53.6205,26.2286998 9.4521,6.6531 21.478,12.8259 30.4581,15.6339 3.6666,1.1466 10.8666,3.7208 16,5.7206 7.5807,2.9532 11.4615,3.6317 20.6666,3.6136 12.7324,-0.025 38.8941,-3.545 48,-6.4581 9.1924,-2.9407 20.9051,-7.0777 32.6667,-11.538 5.8667,-2.2249 15.1667,-5.7085 20.6667,-7.7414 5.5,-2.0329 14.5,-5.6137 20,-7.9573 5.5,-2.3436 12.4,-5.1386 15.3333,-6.2111 2.9333,-1.0725 7.9893,-3.1871 11.2356,-4.6991 28.1589,-13.1154998 58.5831,-17.7799998 91.0317,-13.9565998 34.5682,4.0732 101.64,23.8673998 141.7327,41.8280998 19.1797,8.5921 40.8323,14.3558 59.3333,15.794 12.9524,1.0069 16.6491,0.035 65.3334,-17.1834 1.1,-0.389 7.1,-2.5212 13.3333,-4.7381 37.3172,-13.2722 67.0868,-18.7954 88.6667,-16.4506 25.015,2.718 74.5069,19.4502 101.3333,34.2587 19.1167,10.5527 25.0644,13.1584 36.6667,16.0638 8.7193,2.1835 16.4974,3.1769 24.9596,3.1877 21.8392,0.028 64.5654,-7.1404 83.0404,-13.9322 3.3,-1.2131 8.62,-3.1514 11.8222,-4.3072 3.2023,-1.1558 12.8023,-5.7266 21.3334,-10.1573 56.8598,-29.5306 68.5158,-34.0227 92.1777,-35.5249 19.8483,-1.2600998 54.0217,-0.6586998 60,1.0559 12.9191,3.7052 45.5603,16.057 52.7935,19.9776 1.3969,0.7572 6.4398,3.0669 11.2065,5.1327 4.7667,2.0658 12.5667,5.7787 17.3333,8.2508 12.8431,6.661 37.6086,19.0072 40.6667,20.2734 1.4667,0.6073 5.9667,2.4018 10,3.9879 4.0333,1.5862 9.1333,3.6551 11.3333,4.5978 19.0494,8.1621 21.23,8.8706 32.7382,10.636 14.5546,2.2329 30.9453,1.2743 46.7876,-2.7362 4.1392,-1.0479 7.8892,-1.9052 8.3333,-1.9052 0.4443,0 0.8076,30.600001 0.8076,68.000001 v 68 H 1280 9.1942056e-6 Z"
           id="path837" />
      </g>
      <path
         style="fill:url(#linearGradient953);fill-opacity:1;stroke-width:1.33333"
         d="M 41.000008,248.692 9.1942056e-6,248.3394 v -62.79 c 0,-52.0297 0.3070999957944,-62.6722 1.7922000057944,-62.1024 0.9857,0.3783 8.0357,1.0795 15.6665988,1.5582 7.631,0.4788 16.5745,1.3983 19.8745,2.0433 3.3,0.6451 13.2,2.1466 22,3.3367 8.8,1.1901 19.2775,2.7308 23.2833,3.4238 4.0057,0.693 18.827602,1.9612 32.937302,2.8181 26.14061,1.5875 54.13808,0.4164 71.33273,-2.9838 44.29827,-8.7598 50.77636,-9.7815 76.44668,-12.0563 21.2282,-1.8812 128.28772,-1.0244 132.02579,1.0567 1.48085,0.8244 9.58085,2.145 18,2.9348 8.41915,0.7898 20.40755,2.3668 26.64088,3.5045 15.25144,2.7837 21.63695,3.8866 42,7.2542 14.65608,2.4238 22.99675,2.8785 54,2.9438 36.18633,0.076 44.69261,-0.655 64,-5.502 4.16544,-1.0458 13.66513,-3.0564 32,-6.7729 3.3,-0.6689 9.9,-1.8548 14.66667,-2.6354 4.76666,-0.7806 13.76666,-2.3254 20,-3.4328 28.60757,-5.0824 43.36597,-6.2159 81.33333,-6.2465 28.79233,-0.023 40.74615,0.473 49.33333,2.0481 16.19558,2.9706 24.06324,4.8978 28.86818,7.0713 2.31082,1.0452 5.53809,1.9005 7.1717,1.9005 1.63362,0 7.54294,1.4511 13.13183,3.2248 25.98815,8.2474 39.16735,10.2235 70.03544,10.501 27.7059,0.2491 33.2894,-0.544 72.7929,-10.3397 34.84483,-8.6405 42.06443,-10.3418 48.96163,-11.5375 7.4406,-1.29 28.4145,-7.9667 43.705,-13.9129 5.1333,-1.9962 12.9333,-4.983002 17.3333,-6.637202 4.4,-1.6542 15.8,-6.1191 25.3334,-9.9221 23.8153,-9.500004 51.7279,-18.698204 61.3333,-20.211304 24.1726,-3.8079 46.0861,-3.8336 68,-0.08 5.7631,0.9872 27.8227,10.0905 38,15.681404 6.6849,3.6723 32.3419,15.2333 33.8168,15.2377 0.8341,0 5.9747,1.8213 11.4235,4.041602 15.4468,6.2944 31.2949,8.5514 46.5572,6.6303 6.8766,-0.8655 17.3854,-3.0976 23.3528,-4.96 15.8289,-4.940402 33.0424,-9.388102 47.9938,-12.401002 14.777,-2.9778 42.2128,-3.5803 56.8559,-1.2485 10.508,1.6732 30.4903,7.8487 40.2099,12.426602 9.4772,4.4638 27.2389,10.9448 36.763,13.4144 4.2316,1.0972 11.4534,3.8168 16.0483,6.0435 4.5951,2.2267 9.9991,4.0486 12.0088,4.0486 2.0099,0 5.7503,0.6176 8.3121,1.3724 12.6399,3.7242 93.8884,0.6258 160.6579,-6.1267 56.5316,-5.7172 82.6059,-7.4078 124.6667,-8.0834 40.5678,-0.6515 46.2732,-0.4674 62.1745,2.006 16.2147,2.5222 22.1103,4.2141 31.3645,9.001 1.9466,1.0069 4.5047,1.8307 5.6848,1.8307 2.1596,0 3.09,0.3683 11.2175,4.441 2.4428,1.2241 5.4728,2.2256 6.7333,2.2256 1.2607,0 2.862,0.5207 3.5587,1.157 1.5776,1.4409 17.7984,4.8788 31.9333,6.7682 16.6984,2.232 18.4276,2.1612 81.3335,-3.332 12.4666,-1.0887 27.7666,-2.5447 34,-3.2357 6.2333,-0.691 22.7333,-2.1999 36.6666,-3.3532 13.9334,-1.1533 31.0334,-2.659 38,-3.346 24.1204,-2.3785 78.1795,-4.4265 118.6667,-4.4956 47.9803,-0.082 71.9405,2.1463 91.3333,8.4935 13.0814,4.2814 24.2626,8.3243 27.3334,9.8832 7.6694,3.8933 33.183,7.4606 53.3581,7.4606 h 15.9752 v 49.7899 49.7898 l -103,0.924 c -92.8197,0.8327 -2317.43176,0.6581 -2416.000092,-0.1896 z"
         id="path837-3" />
    </g>
  </g>
</svg>
